<svg xmlns="http://www.w3.org/2000/svg" viewBox="0 0 1024 1024">
  <defs>
    <linearGradient id="bg" x1="192" x2="832" y1="96" y2="928" gradientUnits="userSpaceOnUse">
      <stop offset="0" stop-color="#2563eb"/>
      <stop offset="1" stop-color="#0f172a"/>
    </linearGradient>
    <linearGradient id="page" x1="276" x2="748" y1="164" y2="860" gradientUnits="userSpaceOnUse">
      <stop offset="0" stop-color="#ffffff"/>
      <stop offset="1" stop-color="#dbeafe"/>
    </linearGradient>
    <filter id="shadow" x="120" y="96" width="784" height="880" color-interpolation-filters="sRGB" filterUnits="userSpaceOnUse">
      <feDropShadow dx="0" dy="28" stdDeviation="36" flood-color="#020617" flood-opacity="0.32"/>
    </filter>
  </defs>
  <rect width="1024" height="1024" rx="224" fill="url(#bg)"/>
  <path fill="#93c5fd" opacity="0.3" d="M142 240c92-98 212-138 360-118 152 20 274 1 366-58v772c-112 82-238 106-378 72-144-34-260-8-348 78V240Z"/>
  <g filter="url(#shadow)">
    <path fill="url(#page)" d="M276 142h340l132 132v608H276V142Z"/>
    <path fill="#bfdbfe" d="M616 142v132h132L616 142Z"/>
    <path fill="#1e3a8a" d="M348 393h328v58H348v-58Zm0 113h248v58H348v-58Zm0 113h328v58H348v-58Z"/>
    <path fill="#2563eb" d="M348 748h88l62-92 66 92h112L548 568 348 748Z"/>
  </g>
</svg>
